# xmcd
#
# Track frame offsets:
#	182
#	13877
#	30450
#	48907
#	65377
#	76320
#	96740
#	112482
#	126070
#	137892
#
# Disc length: 1998 seconds
#
# Revision: 2
# Processed by: cddbd v1.5.1PL0 Copyright (c) Steve Scherf et al.
# Submitted via: audiograbber 1.83.01
#
DISCID=8e07cc0a
DTITLE=Various Country Artists - New Country: August 1994
DYEAR=1900
DGENRE=
TTITLE0=Ricky Lynn Gregg - After the Fire is Gone
TTITLE1=Diamond Rio - Love A Little Stronger
TTITLE2=Kennedy Rose - She Walks the Line
TTITLE3=Cheryl Wheeler - Silver Lining
TTITLE4=Tim and Mollie O'Brien - Wichita
TTITLE5=Carrie Newcomer - Streamline 
TTITLE6=Gibson Miller Band - Mammas Don't Let Your Babies Grow Up To Be Cowboys
TTITLE7=David Ball - Thinkin' Problem
TTITLE8=Dave Edmunds - The Claw
TTITLE9=Jeff Foxworthy - You Might Be A Redneck If... 
EXTD=
EXTT0=
EXTT1=
EXTT2=
EXTT3=
EXTT4=
EXTT5=
EXTT6=
EXTT7=
EXTT8=
EXTT9=
PLAYORDER=
